<svg width="40" height="40" viewBox="0 0 40 40" fill="none" xmlns="http://www.w3.org/2000/svg">
<rect width="40" height="40" rx="10" fill="#E57F66"/>
<path d="M10 10H12L14.66 22.42C14.7576 22.8749 15.0107 23.2815 15.3757 23.5699C15.7408 23.8582 16.1949 24.0103 16.66 24H26.44C26.8952 23.9993 27.3365 23.8433 27.691 23.5578C28.0456 23.2724 28.2921 22.8745 28.39 22.43L30.04 15H13.07M16.95 28.95C16.95 29.5023 16.5023 29.95 15.95 29.95C15.3977 29.95 14.95 29.5023 14.95 28.95C14.95 28.3977 15.3977 27.95 15.95 27.95C16.5023 27.95 16.95 28.3977 16.95 28.95ZM27.95 28.95C27.95 29.5023 27.5023 29.95 26.95 29.95C26.3977 29.95 25.95 29.5023 25.95 28.95C25.95 28.3977 26.3977 27.95 26.95 27.95C27.5023 27.95 27.95 28.3977 27.95 28.95Z" stroke="white" stroke-width="2" stroke-linecap="round" stroke-linejoin="round"/>
</svg>
